<svg width="500" height="505" viewBox="0 0 500 505" fill="none" xmlns="http://www.w3.org/2000/svg">
<g opacity="0.0414109" filter="url(#filter0_f_86_0)">
<path fill-rule="evenodd" clip-rule="evenodd" d="M250 450C338.366 450 410 378.366 410 290C410 201.634 338.366 130 250 130C161.634 130 90 201.634 90 290C90 378.366 161.634 450 250 450Z" fill="black"/>
</g>
<path fill-rule="evenodd" clip-rule="evenodd" d="M250 410C338.366 410 410 338.366 410 250C410 161.634 338.366 90 250 90C161.634 90 90 161.634 90 250C90 338.366 161.634 410 250 410Z" fill="white"/>
<path d="M389 250C389 326.768 326.768 389 250 389C173.232 389 111 326.768 111 250C111 173.232 173.232 111 250 111C326.768 111 389 173.232 389 250Z" stroke="#EBEDF5" stroke-width="2"/>

<defs>
<filter id="filter0_f_86_0" x="35.6344" y="75.6344" width="428.731" height="428.731" filterUnits="userSpaceOnUse" color-interpolation-filters="sRGB">
<feFlood flood-opacity="0" result="BackgroundImageFix"/>
<feBlend mode="normal" in="SourceGraphic" in2="BackgroundImageFix" result="shape"/>
<feGaussianBlur stdDeviation="27.1828" result="effect1_foregroundBlur_86_0"/>
</filter>
<clipPath id="clip0_86_0">
<rect width="224" height="165" fill="white" transform="translate(143 167)"/>
</clipPath>
</defs>
</svg>
